<?xml version="1.0" encoding="UTF-8" standalone="no"?>
<!-- Generator: Adobe Illustrator 17.1.0, SVG Export Plug-In . SVG Version: 6.00 Build 0)  -->

<svg
   version="1.1"
   id="Capa_1"
   x="0px"
   y="0px"
   viewBox="0 0 512.392 512.392"
   style="enable-background:new 0 0 512.392 512.392;"
   xml:space="preserve"
   sodipodi:docname="003-flash.svg"
   inkscape:version="1.1 (c68e22c387, 2021-05-23)"
   xmlns:inkscape="http://www.inkscape.org/namespaces/inkscape"
   xmlns:sodipodi="http://sodipodi.sourceforge.net/DTD/sodipodi-0.dtd"
   xmlns="http://www.w3.org/2000/svg"
   xmlns:svg="http://www.w3.org/2000/svg"><defs
   id="defs1151" /><sodipodi:namedview
   id="namedview1149"
   pagecolor="#ffffff"
   bordercolor="#666666"
   borderopacity="1.0"
   inkscape:pageshadow="2"
   inkscape:pageopacity="0.0"
   inkscape:pagecheckerboard="0"
   showgrid="false"
   inkscape:zoom="1.4988524"
   inkscape:cx="255.86241"
   inkscape:cy="256.196"
   inkscape:window-width="1920"
   inkscape:window-height="1018"
   inkscape:window-x="-8"
   inkscape:window-y="-8"
   inkscape:window-maximized="1"
   inkscape:current-layer="Capa_1" />
<g
   id="g1116"
   transform="matrix(0.10002599,0,0,0.06245231,86.611432,439.003)">
	<path
   d="m 413.911,212.027 c -2.347,-4.497 -8.637,-12.041 -24.388,-12.041 H 256.381 L 284.193,24.073 C 285.695,14.159 284.809,7.698 281.403,3.738 279.331,1.327 276.458,0 273.314,0 267.74,0 262.29,4.096 256.16,12.891 c -0.026,0.038 -0.052,0.075 -0.077,0.113 l -153.574,228.6 c -8.962,12.895 -6.372,22.348 -4.028,26.839 2.348,4.498 8.637,12.042 24.389,12.042 H 232.792 L 200.104,488.32 c -1.502,9.911 -0.616,16.372 2.789,20.332 2.072,2.41 4.944,3.738 8.087,3.739 0.001,0 0.002,0 0.004,0 5.573,0 11.023,-4.097 17.152,-12.89 l 181.71,-260.582 c 9.006,-12.921 6.413,-22.395 4.065,-26.892 z M 396.72,229.771 216.264,488.555 250.051,273.729 c 0.363,-2.31 -0.302,-4.664 -1.822,-6.441 -1.52,-1.778 -3.742,-2.801 -6.081,-2.801 H 122.869 c -5.185,0 -9.095,-1.32 -10.204,-3.446 -1.11,-2.125 0.043,-6.088 3.008,-10.342 0.026,-0.038 0.052,-0.075 0.078,-0.113 L 268.017,23.932 239.115,206.736 c -0.365,2.312 0.299,4.667 1.819,6.446 1.52,1.779 3.743,2.804 6.083,2.804 h 142.506 c 6.198,0 9.335,1.779 10.204,3.445 0.87,1.665 0.536,5.257 -3.007,10.34 z"
   id="path1108" />
	<path
   d="m 230.954,114.604 c -4.356,-0.743 -8.486,2.193 -9.225,6.549 l -8.667,51.096 c -0.739,4.356 2.193,8.486 6.549,9.225 0.453,0.077 0.903,0.114 1.348,0.114 3.831,0 7.215,-2.76 7.877,-6.664 l 8.667,-51.096 c 0.739,-4.355 -2.193,-8.485 -6.549,-9.224 z"
   id="path1110" />
	<path
   d="m 358.962,241.608 c -3.624,-2.528 -8.611,-1.636 -11.137,1.989 l -10.672,15.312 c -2.526,3.625 -1.636,8.611 1.988,11.137 1.394,0.972 2.988,1.438 4.568,1.438 2.527,0 5.015,-1.195 6.57,-3.426 l 10.672,-15.312 c 2.526,-3.625 1.636,-8.611 -1.989,-11.138 z"
   id="path1112" />
	<path
   d="m 331.826,280.542 c -3.625,-2.527 -8.611,-1.636 -11.137,1.989 l -52.352,75.113 c -2.526,3.625 -1.636,8.611 1.989,11.137 1.394,0.972 2.988,1.438 4.567,1.438 2.528,0 5.015,-1.195 6.57,-3.426 l 52.352,-75.113 c 2.527,-3.625 1.636,-8.612 -1.989,-11.138 z"
   id="path1114" />
</g>
<g
   id="g1118">
</g>
<g
   id="g1120">
</g>
<g
   id="g1122">
</g>
<g
   id="g1124">
</g>
<g
   id="g1126">
</g>
<g
   id="g1128">
</g>
<g
   id="g1130">
</g>
<g
   id="g1132">
</g>
<g
   id="g1134">
</g>
<g
   id="g1136">
</g>
<g
   id="g1138">
</g>
<g
   id="g1140">
</g>
<g
   id="g1142">
</g>
<g
   id="g1144">
</g>
<g
   id="g1146">
</g>
</svg>
