<?xml version="1.0" encoding="UTF-8" standalone="no"?>
<!-- Generator: Adobe Illustrator 17.1.0, SVG Export Plug-In . SVG Version: 6.00 Build 0)  -->

<svg
   version="1.1"
   id="Capa_1"
   x="0px"
   y="0px"
   viewBox="0 0 512.269 512.269"
   style="enable-background:new 0 0 512.269 512.269;"
   xml:space="preserve"
   sodipodi:docname="006-speedometer.svg"
   inkscape:version="1.1 (c68e22c387, 2021-05-23)"
   xmlns:inkscape="http://www.inkscape.org/namespaces/inkscape"
   xmlns:sodipodi="http://sodipodi.sourceforge.net/DTD/sodipodi-0.dtd"
   xmlns="http://www.w3.org/2000/svg"
   xmlns:svg="http://www.w3.org/2000/svg"><defs
   id="defs1472" /><sodipodi:namedview
   id="namedview1470"
   pagecolor="#ffffff"
   bordercolor="#666666"
   borderopacity="1.0"
   inkscape:pageshadow="2"
   inkscape:pageopacity="0.0"
   inkscape:pagecheckerboard="0"
   showgrid="false"
   inkscape:zoom="1.4699309"
   inkscape:cx="256.13449"
   inkscape:cy="255.79434"
   inkscape:window-width="1920"
   inkscape:window-height="1018"
   inkscape:window-x="-8"
   inkscape:window-y="-8"
   inkscape:window-maximized="1"
   inkscape:current-layer="Capa_1" />
<g
   id="g1437"
   transform="matrix(0.06246706,0,0,0.07075472,0,41.012241)">
	<path
   d="m 224.122,300.269 c 0,17.652 14.361,32.013 32.013,32.013 17.652,0 32.013,-14.361 32.013,-32.013 0,-4.418 -3.582,-8 -8,-8 -4.418,0 -8,3.582 -8,8 0,8.83 -7.183,16.013 -16.013,16.013 -8.83,0 -16.013,-7.183 -16.013,-16.013 0,-1.651 0.252,-3.245 0.718,-4.744 0.276,-0.42 0.528,-0.86 0.727,-1.341 0.192,-0.467 0.332,-0.941 0.432,-1.418 2.695,-5.057 8.018,-8.509 14.137,-8.509 4.418,0 8,-3.582 8,-8 0,-4.418 -3.582,-8 -8,-8 -10.425,0 -19.699,5.011 -25.548,12.748 L 108.668,230.74 c -4.086,-1.685 -8.762,0.262 -10.445,4.347 -1.684,4.085 0.262,8.761 4.347,10.445 l 121.875,50.247 c -0.209,1.467 -0.323,2.965 -0.323,4.49 z"
   id="path1425" />
	<path
   d="M 437.249,119.155 C 388.872,70.778 324.551,44.135 256.135,44.135 187.718,44.135 123.398,70.778 75.02,119.155 26.642,167.532 0,231.853 0,300.269 c 0,50.1 14.519,98.672 41.986,140.467 1.537,2.338 4.089,3.607 6.693,3.607 1.508,0 3.032,-0.426 4.386,-1.315 3.692,-2.427 4.718,-7.387 2.292,-11.079 C 48.524,421.553 42.556,410.705 37.46,399.506 l 22.069,-9.142 c 4.082,-1.691 6.021,-6.371 4.33,-10.453 -1.691,-4.083 -6.372,-6.019 -10.453,-4.33 l -22.084,9.148 C 22.154,360.368 17.006,334.59 16.137,308.268 h 23.88 c 4.418,0 8,-3.582 8,-8 0,-4.418 -3.582,-8 -8,-8 H 16.146 c 0.862,-26.508 6.002,-52.27 15.091,-76.496 l 22.169,9.183 c 1.001,0.415 2.038,0.611 3.059,0.611 3.139,0 6.118,-1.86 7.394,-4.94 1.691,-4.082 -0.248,-8.762 -4.33,-10.453 L 37.36,200.99 c 10.703,-23.558 25.285,-45.409 43.42,-64.763 l 16.88,16.88 c 1.562,1.562 3.609,2.343 5.657,2.343 2.048,0 4.095,-0.781 5.657,-2.343 3.125,-3.124 3.125,-8.189 0,-11.313 l -16.88,-16.88 c 19.354,-18.134 41.205,-32.716 64.763,-43.42 l 9.183,22.169 c 1.276,3.081 4.255,4.94 7.394,4.94 1.021,0 2.058,-0.196 3.059,-0.611 4.082,-1.691 6.021,-6.371 4.33,-10.453 L 171.64,75.37 c 24.226,-9.089 49.988,-14.229 76.496,-15.091 V 84.15 c 0,4.418 3.582,8 8,8 4.418,0 8,-3.582 8,-8 V 60.281 c 26.508,0.862 52.27,6.002 76.496,15.091 l -9.183,22.169 c -1.691,4.082 0.248,8.762 4.33,10.453 1.001,0.415 2.038,0.611 3.059,0.611 3.139,0 6.118,-1.86 7.394,-4.94 l 9.183,-22.169 c 23.558,10.703 45.409,25.285 64.762,43.42 l -16.88,16.88 c -3.125,3.124 -3.125,8.189 0,11.313 1.562,1.562 3.609,2.343 5.657,2.343 2.048,0 4.095,-0.781 5.657,-2.343 l 16.88,-16.88 c 18.134,19.354 32.716,41.205 43.42,64.763 l -22.169,9.183 c -4.082,1.691 -6.021,6.371 -4.33,10.453 1.276,3.081 4.255,4.94 7.394,4.94 1.021,0 2.058,-0.196 3.059,-0.611 l 22.169,-9.183 c 9.089,24.226 14.229,49.988 15.091,76.496 h -23.871 c -4.418,0 -8,3.582 -8,8 0,4.418 3.582,8 8,8 h 23.879 c -0.868,26.322 -6.017,52.1 -15.185,76.461 l -22.084,-9.148 c -4.081,-1.688 -8.761,0.248 -10.453,4.33 -1.691,4.082 0.248,8.762 4.33,10.453 l 22.069,9.142 c -5.096,11.2 -11.064,22.047 -17.897,32.443 -2.427,3.692 -1.4,8.652 2.292,11.079 3.691,2.425 8.652,1.4 11.079,-2.292 27.468,-41.794 41.986,-90.367 41.986,-140.467 -10e-4,-68.418 -26.644,-132.739 -75.021,-181.116 z"
   id="path1427" />
	<path
   d="M 328,388.135 H 184 c -13.233,0 -24,10.767 -24,24 v 32 c 0,13.233 10.767,24 24,24 h 144 c 13.233,0 24,-10.767 24,-24 v -32 c 0,-13.234 -10.767,-24 -24,-24 z m 8,56 c 0,4.411 -3.589,8 -8,8 H 184 c -4.411,0 -8,-3.589 -8,-8 v -32 c 0,-4.411 3.589,-8 8,-8 h 144 c 4.411,0 8,3.589 8,8 z"
   id="path1429" />
	<path
   d="m 264,420.135 h -16 c -4.418,0 -8,3.582 -8,8 0,4.418 3.582,8 8,8 h 16 c 4.418,0 8,-3.582 8,-8 0,-4.418 -3.582,-8 -8,-8 z"
   id="path1431" />
	<path
   d="m 224,420.135 h -16 c -4.418,0 -8,3.582 -8,8 0,4.418 3.582,8 8,8 h 16 c 4.418,0 8,-3.582 8,-8 0,-4.418 -3.582,-8 -8,-8 z"
   id="path1433" />
	<path
   d="m 304,420.135 h -16 c -4.418,0 -8,3.582 -8,8 0,4.418 3.582,8 8,8 h 16 c 4.418,0 8,-3.582 8,-8 0,-4.418 -3.582,-8 -8,-8 z"
   id="path1435" />
</g>
<g
   id="g1439">
</g>
<g
   id="g1441">
</g>
<g
   id="g1443">
</g>
<g
   id="g1445">
</g>
<g
   id="g1447">
</g>
<g
   id="g1449">
</g>
<g
   id="g1451">
</g>
<g
   id="g1453">
</g>
<g
   id="g1455">
</g>
<g
   id="g1457">
</g>
<g
   id="g1459">
</g>
<g
   id="g1461">
</g>
<g
   id="g1463">
</g>
<g
   id="g1465">
</g>
<g
   id="g1467">
</g>
</svg>
