<?xml version="1.0" encoding="UTF-8" standalone="no"?>
<svg
   height="32"
   viewBox="-18 -42 24.027192 23.999999"
   width="32"
   version="1.1"
   id="svg5245"
   sodipodi:docname="111-layers.svg"
   inkscape:version="1.1 (c68e22c387, 2021-05-23)"
   xmlns:inkscape="http://www.inkscape.org/namespaces/inkscape"
   xmlns:sodipodi="http://sodipodi.sourceforge.net/DTD/sodipodi-0.dtd"
   xmlns="http://www.w3.org/2000/svg"
   xmlns:svg="http://www.w3.org/2000/svg">
  <defs
     id="defs5249" />
  <sodipodi:namedview
     id="namedview5247"
     pagecolor="#ffffff"
     bordercolor="#666666"
     borderopacity="1.0"
     inkscape:pageshadow="2"
     inkscape:pageopacity="0.0"
     inkscape:pagecheckerboard="0"
     inkscape:document-units="pt"
     showgrid="false"
     units="px"
     inkscape:zoom="13.85554"
     inkscape:cx="14.434659"
     inkscape:cy="15.950299"
     inkscape:window-width="1440"
     inkscape:window-height="838"
     inkscape:window-x="-8"
     inkscape:window-y="-8"
     inkscape:window-maximized="1"
     inkscape:current-layer="svg5245" />
  <g
     id="g898"
     transform="matrix(0.939002,0,0,0.96832615,-0.72824027,-0.95014975)"
     style="stroke-width:1.04872">
    <path
       d="m 5.6821087,-37.083516 -11.47172,-4.889597 c -0.126442,-0.05398 -0.266611,-0.05398 -0.393221,0 l -11.4718907,4.889597 c -0.207967,0.08867 -0.345086,0.307918 -0.345086,0.552398 0,0.244294 0.137119,0.463732 0.345086,0.552398 l 11.4718907,4.889782 c 0.12661,0.05379 0.266779,0.05379 0.393221,0 l 11.47172,-4.889782 c 0.208137,-0.08867 0.345086,-0.308104 0.345086,-0.552398 0,-0.24448 -0.136949,-0.463733 -0.345086,-0.552398 z m -11.668331,4.806124 -9.9796837,-4.253726 9.9796837,-4.253541 9.979344,4.253541 z m 0,0"
       id="path5239"
       style="stroke:#000000;stroke-width:0.787423;stroke-miterlimit:4;stroke-dasharray:none;stroke-opacity:1" />
    <path
       d="m 5.6870247,-30.550266 -4.82831603,-2.117032 c -0.179492,-0.0818 -0.385255,-0.05194 -0.539154,0.07791 -0.154068,0.130031 -0.232203,0.34038 -0.205593,0.5511 0.02678,0.21072 0.154915,0.389536 0.335254,0.46837 l 0.0066,0.0032 3.55560103,1.558883 -9.997639,4.261521 -10.0076497,-4.265598 3.685771,-1.640315 c 0.277797,-0.121869 0.412713,-0.466701 0.301526,-0.770724 -0.111356,-0.303837 -0.426611,-0.451675 -0.704408,-0.329806 l -0.0053,0.0022 -4.946113,2.201431 c -0.205424,0.09145 -0.339323,0.3107 -0.337628,0.553325 0.0017,0.242993 0.138311,0.460206 0.345091,0.548129 l 11.4718907,4.889597 c 0.126441,0.05398 0.266781,0.05398 0.393051,0 l 11.471891,-4.889597 c 0.207119,-0.08811 0.3439,-0.306063 0.345085,-0.54943 0.001,-0.243367 -0.133898,-0.46262 -0.34017,-0.553141 z m 0,0"
       id="path5241"
       style="stroke:#000000;stroke-width:0.787423;stroke-miterlimit:4;stroke-dasharray:none;stroke-opacity:1" />
    <path
       d="m 5.6838037,-24.020354 -4.69729803,-2.022987 c -0.277628,-0.122611 -0.593052,0.02449 -0.705087,0.328323 -0.111695,0.303466 0.02271,0.648669 0.300171,0.771279 l 0.0081,0.0033 3.41017803,1.468733 -9.986125,4.256178 -10.0052397,-4.264485 3.653907,-1.620467 c 0.277458,-0.122982 0.410848,-0.468555 0.298644,-0.772022 -0.112373,-0.303281 -0.428136,-0.449635 -0.705425,-0.326839 l -4.917299,2.181028 c -0.205763,0.09108 -0.339831,0.310515 -0.338306,0.553511 0.0015,0.24281 0.138306,0.460023 0.345086,0.548317 l 11.4718877,4.889597 c 0.126441,0.05398 0.266781,0.05398 0.393051,0 l 11.471891,-4.889597 c 0.207797,-0.08885 0.344746,-0.307362 0.345085,-0.551471 5.08e-4,-0.243923 -0.135762,-0.463176 -0.34339,-0.552584 z m 0,0"
       id="path5243"
       style="fill:#000000;fill-opacity:1;stroke:#000000;stroke-width:0.787423;stroke-miterlimit:4;stroke-dasharray:none;stroke-opacity:1" />
  </g>
</svg>
