<?xml version="1.0" encoding="UTF-8" standalone="no"?>
<svg
   height="32"
   viewBox="-21 -16 23.999999 24.015121"
   width="32"
   version="1.1"
   id="svg5332"
   sodipodi:docname="166-gear.svg"
   inkscape:version="1.1 (c68e22c387, 2021-05-23)"
   xmlns:inkscape="http://www.inkscape.org/namespaces/inkscape"
   xmlns:sodipodi="http://sodipodi.sourceforge.net/DTD/sodipodi-0.dtd"
   xmlns:xlink="http://www.w3.org/1999/xlink"
   xmlns="http://www.w3.org/2000/svg"
   xmlns:svg="http://www.w3.org/2000/svg">
  <defs
     id="defs5336">
    <inkscape:path-effect
       effect="spiro"
       id="path-effect1200"
       is_visible="true"
       lpeversion="1" />
    <color-profile
       name="Agfa-:-Swop-Standard"
       xlink:href="../../../Windows/system32/spool/drivers/color/RSWOP.icm"
       id="color-profile857" />
    <inkscape:path-effect
       effect="spiro"
       id="path-effect997"
       is_visible="true"
       lpeversion="1" />
  </defs>
  <sodipodi:namedview
     id="namedview5334"
     pagecolor="#ffffff"
     bordercolor="#666666"
     borderopacity="1.0"
     inkscape:pageshadow="2"
     inkscape:pageopacity="0.0"
     inkscape:pagecheckerboard="0"
     inkscape:document-units="px"
     showgrid="false"
     units="px"
     inkscape:zoom="13.85554"
     inkscape:cx="12.48598"
     inkscape:cy="13.640753"
     inkscape:window-width="1440"
     inkscape:window-height="838"
     inkscape:window-x="-8"
     inkscape:window-y="-8"
     inkscape:window-maximized="1"
     inkscape:current-layer="svg5332"
     inkscape:snap-global="false"
     objecttolerance="22.6" />
  <path
     d="m 1.9105888,-6.6108381 c 0.3549846,-0.2620763 0.4548969,-0.7422576 0.2333678,-1.1198947 l -2.35448514,-3.8836632 c -0.29345873,-0.478773 -0.76934254,-0.501815 -1.09526816,-0.320648 l -2.4972685,1.126755 c -0.5560655,-0.397161 -1.1532066,-0.736102 -1.7815605,-1.011195 l -0.2493318,-2.691829 c -0.00233,-0.02287 -0.00661,-0.04537 -0.012739,-0.06771 -0.096321,-0.401209 -0.4362384,-0.670497 -0.826739,-0.670497 h -4.5986565 c -0.44198,0 -0.817234,0.322583 -0.837863,0.724493 l -0.250767,2.710649 c -0.713198,0.31115 -1.301371,0.640241 -1.787658,1.00627 l -2.504086,-1.130801 c -0.0088,-0.0038 -0.01776,-0.0083 -0.02673,-0.01178 -0.391398,-0.153729 -0.86764,0 -1.055805,0.335775 l -2.300853,3.8836629 c -0.225116,0.3799236 -0.121795,0.8650303 0.239647,1.1248201 0.0039,0.00281 0.0079,0.00563 0.01184,0.00845 l 2.250089,1.5685915 c -0.11211,0.6710228 -0.112289,1.3554126 -7.03e-4,2.0266111 l -2.357177,1.5735162 c -0.0077,0.00513 -0.01507,0.010378 -0.0226,0.015827 -0.350859,0.262077 -0.449337,0.73856488 -0.230139,1.11391528 l 2.299776,3.88120132 c 0.0014,0.00211 0.0027,0.00457 0.0043,0.00704 0.103859,0.1783532 0.268346,0.315196 0.464762,0.3864316 0.209691,0.069125 0.43983,0.044325 0.628712,-0.067894 l 2.498345,-1.1269309 c 0.556064,0.3969849 1.152848,0.7361018 1.781021,1.0113709 l 0.249692,2.6923562 c 0.0025,0.029728 0.0068,0.05945 0.01274,0.088649 0.0965,0.4010299 0.436422,0.6919533 0.826742,0.6919533 h 4.5986559 c 0.4419821,0 0.8170567,-0.3435143 0.8382223,-0.7456003 l 0.2511261,-2.7219063 c 0.634256,-0.267005 1.2342677,-0.6064742 1.7874619,-1.0113742 l 2.5033683,1.1283377 c 0.00969,0.00422 0.019195,0.00774 0.029056,0.011433 0.38978379,0.1507381 0.86512951,-0.00352 1.05275612,-0.336478 L 1.9837747,-0.29566138 C 2.208891,-0.67417796 2.1071857,-1.1584044 1.7475378,-1.4187222 l -2.10587155,-1.5728131 c 0.0529156,-0.3384138 0.0812572,-0.6799932 0.0850245,-1.022452 -0.003583,-0.3398208 -0.0315679,-0.6792894 -0.0841278,-1.015416 L 1.898034,-6.6018648 c 0.00429,-0.00281 0.00807,-0.00598 0.012556,-0.00897 z m -3.2180004,0.8625672 c -0.1748912,0.1220681 -0.2656546,0.3296192 -0.2353409,0.5380493 l 0.022958,0.1600606 c 0.058656,0.3426347 0.091482,0.6887872 0.098478,1.0361709 -0.00661,0.3472085 -0.039467,0.6933609 -0.098119,1.0358192 l -0.022783,0.1540806 c -0.029598,0.2020977 0.054709,0.4041961 0.2204529,0.5280226 L 0.87092431,-0.65817484 -1.1657069,2.7794294 -3.7462063,1.6152104 c -0.199466,-0.090408 -0.4340894,-0.061031 -0.6043171,0.075281 l -0.1302268,0.1046545 c -0.464942,0.3730638 -1.0636981,0.7111254 -1.8303494,1.0335327 l -0.1474472,0.061917 c -0.1946225,0.08601 -0.3270018,0.2684087 -0.3454776,0.477191 l -0.2550721,2.7708033 h -4.0407975 l -0.255969,-2.7708031 c -0.0192,-0.2073746 -0.151393,-0.3881908 -0.345656,-0.4717389 l -0.147448,-0.064554 c -0.660817,-0.2766768 -1.284506,-0.6314481 -1.857611,-1.0563997 l -0.128613,-0.095157 c -0.168254,-0.1243546 -0.392833,-0.1477482 -0.584227,-0.061383 l -2.573323,1.1605254 -2.030534,-3.42652301 2.290628,-1.52901679 c 0.0045,-0.00317 0.009,-0.00619 0.01346,-0.00933 l 0.138299,-0.098323 c 0.17238,-0.1224197 0.261709,-0.3283874 0.231574,-0.5352347 l -0.02368,-0.1635798 c -0.0583,-0.3408762 -0.09112,-0.6854452 -0.09812,-1.0310703 0.0071,-0.3473836 0.04018,-0.6938883 0.09902,-1.0365224 l 0.02278,-0.1597091 c 0.03032,-0.2084308 -0.06045,-0.4159812 -0.2357,-0.5380493 l -2.334036,-1.6275146 2.032505,-3.4307456 2.581038,1.1638682 c 0.199286,0.090055 0.433371,0.060505 0.603061,-0.075638 l 0.130585,-0.1046549 c 0.46566,-0.3734143 1.064417,-0.7116523 1.829812,-1.0333573 l 0.147985,-0.06191 c 0.193008,-0.07669 0.326285,-0.252404 0.345657,-0.455733 l 0.254714,-2.749873 h 4.0409753 l 0.2557904,2.749522 c 0.019371,0.204736 0.1522899,0.38221 0.3458362,0.46136 l 0.1476266,0.05928 c 0.66082,0.275268 1.2848677,0.62916 1.8577941,1.0534084 l 0.1286119,0.093925 c 0.1686134,0.1241781 0.3930131,0.1475715 0.5845857,0.061031 l 2.5754765,-1.1621084 2.0820144,3.4333826 z m 0,0"
     id="path5326"
     style="stroke:#000000;stroke-width:1.50095;stroke-miterlimit:4.75;stroke-dasharray:none;stroke-opacity:1" />
  <rect
     style="fill:#ff0000;fill-opacity:0;fill-rule:evenodd;stroke:#000000;stroke-width:2.25142;stroke-linecap:round;stroke-miterlimit:4.75;stroke-dasharray:none;stroke-opacity:1"
     id="rect1432"
     width="9.0056705"
     height="9.0056677"
     x="-13.427787"
     y="-8.4202261"
     rx="4288.147"
     ry="9.3189363" />
</svg>
