<?xml version="1.0" encoding="UTF-8" standalone="no"?>
<!-- Generator: Adobe Illustrator 17.1.0, SVG Export Plug-In . SVG Version: 6.00 Build 0)  -->

<svg
   version="1.1"
   id="Capa_1"
   x="0px"
   y="0px"
   viewBox="0 0 31.999999 31.999999"
   xml:space="preserve"
   sodipodi:docname="big-anchor.svg"
   inkscape:version="1.1 (c68e22c387, 2021-05-23)"
   width="32"
   height="32"
   xmlns:inkscape="http://www.inkscape.org/namespaces/inkscape"
   xmlns:sodipodi="http://sodipodi.sourceforge.net/DTD/sodipodi-0.dtd"
   xmlns="http://www.w3.org/2000/svg"
   xmlns:svg="http://www.w3.org/2000/svg"><defs
   id="defs4474" /><sodipodi:namedview
   id="namedview4472"
   pagecolor="#ffffff"
   bordercolor="#666666"
   borderopacity="1.0"
   inkscape:pageshadow="2"
   inkscape:pageopacity="0.0"
   inkscape:pagecheckerboard="0"
   showgrid="false"
   inkscape:zoom="1.4707491"
   inkscape:cx="195.47862"
   inkscape:cy="92.469885"
   inkscape:window-width="1920"
   inkscape:window-height="1018"
   inkscape:window-x="-8"
   inkscape:window-y="-8"
   inkscape:window-maximized="1"
   inkscape:current-layer="Capa_1" />
<g
   id="g4439"
   transform="matrix(0.06986317,0,0,0.06250177,-0.98214723,5.765021e-4)">
	<path
   d="m 478.164,306.897 c -2.006,-2.293 -5.139,-3.246 -8.085,-2.46 l -93.681,25.035 c -0.581,0.155 -1.136,0.375 -1.658,0.652 -10.257,4.343 -16.237,15.257 -14.291,26.344 2.008,11.433 12.283,19.731 24.432,19.731 h 3.471 c -28.747,29.667 -67.124,49.006 -108.335,54.404 v -214.5 h 0.005 c 4.418,0 8,-3.582 8,-8 0,-4.418 -3.582,-8 -8,-8 h -0.005 v -16.019 h 23.161 c 12.134,0 22.686,-8.613 24.544,-20.035 1.145,-7.032 -0.82,-14.148 -5.391,-19.522 -4.573,-5.378 -11.241,-8.462 -18.295,-8.462 h -24.02 v -12.709 c 28.075,-11.34 44.59,-41.061 38.879,-71.568 C 314.164,26.509 294.048,6.197 268.84,1.245 c -19.125,-3.76 -38.61,1.093 -53.46,13.309 -14.875,12.237 -23.407,30.267 -23.407,49.464 0,26.036 16.187,49.627 40.024,59.329 v 12.719 h -23.161 c -12.134,0 -22.686,8.613 -24.544,20.035 -1.145,7.032 0.82,14.147 5.391,19.522 4.573,5.378 11.241,8.462 18.295,8.462 h 24.019 v 16.019 h -0.005 c -4.418,0 -8,3.582 -8,8 0,4.418 3.582,8 8,8 h 0.005 v 214.501 c -41.211,-5.398 -79.588,-24.737 -108.335,-54.404 h 3.471 c 12.149,0 22.424,-8.299 24.432,-19.732 1.943,-11.07 -4.017,-21.97 -14.248,-26.325 -0.535,-0.285 -1.105,-0.511 -1.701,-0.67 L 41.904,304.439 c -2.945,-0.787 -6.082,0.169 -8.088,2.463 -2.006,2.296 -2.534,5.531 -1.361,8.345 l 9.248,22.174 c 16.663,39.953 43.957,74.329 78.93,99.412 33.458,23.996 72.686,38.604 113.749,42.402 l 9.711,24.641 c 1.942,4.927 6.619,8.11 11.915,8.11 5.296,0 9.973,-3.184 11.915,-8.11 l 9.711,-24.641 c 41.063,-3.799 80.29,-18.406 113.749,-42.402 34.974,-25.083 62.267,-59.459 78.933,-99.421 l 9.217,-22.174 c 1.168,-2.816 0.638,-6.049 -1.369,-8.341 z M 207.974,64.017 c 0,-14.396 6.405,-27.921 17.572,-37.107 11.141,-9.165 25.797,-12.795 40.21,-9.966 18.84,3.702 33.875,18.888 37.413,37.787 4.578,24.456 -9.8,48.228 -33.443,55.295 -3.388,1.013 -5.709,4.129 -5.709,7.665 v 18.374 h -16.019 v -18.374 c 0,-3.536 -2.321,-6.652 -5.709,-7.665 -20.204,-6.039 -34.315,-24.959 -34.315,-46.009 z m 32.024,104.067 h -32.019 c -2.354,0 -4.579,-1.03 -6.107,-2.827 -1.547,-1.819 -2.182,-4.159 -1.787,-6.587 0.603,-3.704 4.447,-6.605 8.752,-6.605 h 31.161 32.019 32.02 c 2.353,0 4.579,1.03 6.106,2.827 1.548,1.82 2.183,4.159 1.788,6.587 -0.603,3.704 -4.447,6.605 -8.752,6.605 h -31.161 c -4.418,0 -8,3.582 -8,8 v 24.019 h -16.019 v -24.019 c -0.001,-4.418 -3.583,-8 -8.001,-8 z M 455.544,331.26 c -15.518,37.208 -40.929,69.218 -73.487,92.568 -32.42,23.252 -70.667,37.034 -110.604,39.856 -3.074,0.218 -5.749,2.181 -6.879,5.047 l -8.566,21.736 -8.567,-21.736 c -1.13,-2.866 -3.805,-4.829 -6.879,-5.047 C 200.624,460.862 162.378,447.08 129.958,423.828 97.4,400.478 71.988,368.468 56.47,331.26 l -2.99,-7.17 77.178,20.618 c 0.022,0.008 0.044,0.017 0.066,0.024 3.008,1.13 5.881,4.418 5.083,8.968 -0.65,3.705 -4.379,6.499 -8.673,6.499 h -21.159 c -3.074,0 -5.876,1.762 -7.209,4.531 -1.333,2.77 -0.96,6.059 0.958,8.461 34.091,42.691 84.979,69.767 139.615,74.282 2.231,0.185 4.433,-0.573 6.078,-2.088 1.645,-1.515 2.581,-3.648 2.581,-5.885 V 216.103 h 16.019 v 223.398 c 0,2.236 0.936,4.37 2.581,5.885 1.645,1.516 3.847,2.281 6.078,2.088 54.637,-4.516 105.525,-31.591 139.616,-74.282 1.918,-2.402 2.29,-5.691 0.958,-8.461 -1.333,-2.77 -4.135,-4.531 -7.209,-4.531 h -21.159 c -4.294,0 -8.022,-2.794 -8.673,-6.498 -0.799,-4.551 2.075,-7.839 5.083,-8.969 0.022,-0.008 0.044,-0.017 0.066,-0.024 l 77.169,-20.623 z"
   id="path4435" />
	<path
   d="m 288.022,64.017 c 0,-17.652 -14.361,-32.014 -32.014,-32.014 -17.653,0 -32.015,14.361 -32.015,32.014 0,17.653 14.362,32.015 32.015,32.015 17.653,0 32.014,-14.362 32.014,-32.015 z m -48.029,0 c 0,-8.83 7.184,-16.014 16.015,-16.014 8.83,0 16.014,7.184 16.014,16.014 0,8.83 -7.184,16.015 -16.014,16.015 -8.831,-10e-4 -16.015,-7.185 -16.015,-16.015 z"
   id="path4437" />
</g>
<g
   id="g4441">
</g>
<g
   id="g4443">
</g>
<g
   id="g4445">
</g>
<g
   id="g4447">
</g>
<g
   id="g4449">
</g>
<g
   id="g4451">
</g>
<g
   id="g4453">
</g>
<g
   id="g4455">
</g>
<g
   id="g4457">
</g>
<g
   id="g4459">
</g>
<g
   id="g4461">
</g>
<g
   id="g4463">
</g>
<g
   id="g4465">
</g>
<g
   id="g4467">
</g>
<g
   id="g4469">
</g>
</svg>
