<?xml version="1.0" encoding="UTF-8" standalone="no"?>
<svg
   viewBox="0 0 32 32"
   version="1.1"
   id="svg20"
   sodipodi:docname="cil-apps.svg"
   width="32"
   height="32"
   inkscape:version="1.1 (c68e22c387, 2021-05-23)"
   xmlns:inkscape="http://www.inkscape.org/namespaces/inkscape"
   xmlns:sodipodi="http://sodipodi.sourceforge.net/DTD/sodipodi-0.dtd"
   xmlns="http://www.w3.org/2000/svg"
   xmlns:svg="http://www.w3.org/2000/svg">
  <defs
     id="defs24" />
  <sodipodi:namedview
     id="namedview22"
     pagecolor="#ffffff"
     bordercolor="#666666"
     borderopacity="1.0"
     inkscape:pageshadow="2"
     inkscape:pageopacity="0.0"
     inkscape:pagecheckerboard="0"
     showgrid="false"
     inkscape:document-units="px"
     inkscape:zoom="1.109375"
     inkscape:cx="255.5493"
     inkscape:cy="256"
     inkscape:window-width="1440"
     inkscape:window-height="838"
     inkscape:window-x="-8"
     inkscape:window-y="-8"
     inkscape:window-maximized="1"
     inkscape:current-layer="svg20" />
  <path
     fill="var(--ci-primary-color, currentColor)"
     d="m 424,192 a 64,64 0 1 0 64,64 64.072,64.072 0 0 0 -64,-64 z m 0,96 a 32,32 0 1 1 32,-32 32.036,32.036 0 0 1 -32,32 z"
     class="ci-primary"
     id="path12" />
  <path
     fill="var(--ci-primary-color, currentColor)"
     d="m 256,352 a 64,64 0 1 0 64,64 64.072,64.072 0 0 0 -64,-64 z m 0,96 a 32,32 0 1 1 32,-32 32.036,32.036 0 0 1 -32,32 z"
     class="ci-primary"
     id="path16" />
  <path
     fill="var(--ci-primary-color, currentColor)"
     d="m 424,352 a 64,64 0 1 0 64,64 64.072,64.072 0 0 0 -64,-64 z m 0,96 a 32,32 0 1 1 32,-32 32.036,32.036 0 0 1 -32,32 z"
     class="ci-primary"
     id="path18" />
</svg>
