<?xml version="1.0" encoding="UTF-8" standalone="no"?>
<!-- Generator: Adobe Illustrator 19.0.0, SVG Export Plug-In . SVG Version: 6.00 Build 0)  -->

<svg
   version="1.1"
   id="Layer_1"
   x="0px"
   y="0px"
   viewBox="0 0 512.00098 511.99999"
   xml:space="preserve"
   sodipodi:docname="cil-serial.svg"
   inkscape:version="1.1 (c68e22c387, 2021-05-23)"
   width="512.00098"
   height="512"
   xmlns:inkscape="http://www.inkscape.org/namespaces/inkscape"
   xmlns:sodipodi="http://sodipodi.sourceforge.net/DTD/sodipodi-0.dtd"
   xmlns="http://www.w3.org/2000/svg"
   xmlns:svg="http://www.w3.org/2000/svg"><defs
   id="defs83">
	
	
	
	
	
	
	
	
	
	
	
	
	
	
	
	
	
	
	
</defs><sodipodi:namedview
   id="namedview81"
   pagecolor="#ffffff"
   bordercolor="#999999"
   borderopacity="1"
   inkscape:pageshadow="0"
   inkscape:pageopacity="0"
   inkscape:pagecheckerboard="0"
   showgrid="false"
   inkscape:zoom="1.142502"
   inkscape:cx="208.75237"
   inkscape:cy="291.02793"
   inkscape:window-width="1920"
   inkscape:window-height="1017"
   inkscape:window-x="-8"
   inkscape:window-y="-8"
   inkscape:window-maximized="1"
   inkscape:current-layer="Layer_1" />

<g
   id="g50"
   transform="translate(0,-145.066)">
</g>
<g
   id="g52"
   transform="translate(0,-145.066)">
</g>
<g
   id="g54"
   transform="translate(0,-145.066)">
</g>
<g
   id="g56"
   transform="translate(0,-145.066)">
</g>
<g
   id="g58"
   transform="translate(0,-145.066)">
</g>
<g
   id="g60"
   transform="translate(0,-145.066)">
</g>
<g
   id="g62"
   transform="translate(0,-145.066)">
</g>
<g
   id="g64"
   transform="translate(0,-145.066)">
</g>
<g
   id="g66"
   transform="translate(0,-145.066)">
</g>
<g
   id="g68"
   transform="translate(0,-145.066)">
</g>
<g
   id="g70"
   transform="translate(0,-145.066)">
</g>
<g
   id="g72"
   transform="translate(0,-145.066)">
</g>
<g
   id="g74"
   transform="translate(0,-145.066)">
</g>
<g
   id="g76"
   transform="translate(0,-145.066)">
</g>
<g
   id="g78"
   inkscape:groupmode="layer"
   transform="translate(0,-145.066)">
</g>
<path
   style="fill:#ffffff;stroke-width:1"
   d="M 48.684954,119.57507 H 64.04189 c -8.446449,0 -15.356936,8.33609 -15.356936,18.52501 v 92.62293 c 0,10.18894 6.910487,18.52503 15.356936,18.52503 H 48.684954 c -8.446449,0 -15.356936,-8.33609 -15.356936,-18.52503 v -92.62293 c 0,-10.18892 6.910487,-18.52501 15.356936,-18.52501"
   id="path6" /><path
   d="m 99.433442,212.63168 c -14.846412,0 -26.993692,-12.69967 -26.993692,-28.22121 0,-15.52155 12.14728,-28.2212 26.993692,-28.2212 14.846408,0 26.994488,12.69965 26.994488,28.2212 0,15.52154 -12.14729,28.22121 -26.994488,28.22121 z m 0,-42.33223 c -7.423601,0 -13.497241,6.34984 -13.497241,14.11102 0,7.76118 6.07364,14.11101 13.497241,14.11101 7.423598,0 13.497238,-6.34983 13.497238,-14.11101 0,-7.76118 -6.07364,-14.11102 -13.497238,-14.11102 z"
   id="path20"
   style="fill:#000000;fill-opacity:1;stroke:#000000;stroke-width:10;stroke-miterlimit:4;stroke-dasharray:none;stroke-opacity:1" /><path
   d="M 378.85233,304.82093 H 133.14675 c -8.44645,0 -15.35694,-8.33609 -15.35694,-18.52502 V 258.50893 H 48.684954 C 35.631514,258.50893 25.65,246.46825 25.65,230.72193 V 138.099 c 0,-15.74633 9.981514,-27.78698 23.034954,-27.78698 H 117.78981 V 82.525019 C 117.78981,72.336092 124.7003,64 133.14675,64 h 245.70648 c 8.44645,0 15.35693,8.336092 15.35693,18.525019 v 27.787001 h 69.10487 c 13.05344,0 23.03495,12.04065 23.03495,27.78698 v 92.62293 c 0,15.74632 -9.98151,27.787 -23.03495,27.787 h -69.10487 v 27.78698 c -8.9e-4,10.18893 -6.91138,18.52502 -15.35783,18.52502 z m 0,-18.52393 v 9.26197 z M 48.684954,128.83703 c -4.60699,0 -7.678018,4.63153 -7.678018,9.26197 v 92.62293 c 0,5.5574 3.071028,9.26197 7.678018,9.26197 h 76.782886 c 4.60699,0 7.67801,3.70457 7.67801,9.26197 v 37.04895 h 245.70648 v -37.04895 c 0,-5.5574 3.07102,-9.26197 7.67801,-9.26197 h 76.78378 c 4.60699,0 7.67803,-3.70457 7.67803,-9.26197 V 138.099 c 0,-5.5574 -3.07104,-9.26197 -7.67803,-9.26197 h -76.78287 c -4.60699,0 -7.67802,-3.70457 -7.67802,-9.26196 V 82.52611 H 133.14675 v 37.04896 c 0,5.55739 -3.07102,9.26196 -7.67801,9.26196 z"
   id="path22"
   style="fill:#000000;fill-opacity:1;stroke:#000000;stroke-width:10;stroke-miterlimit:4;stroke-dasharray:none;stroke-opacity:1" /><path
   d="m 417.96405,210.75026 c -14.84662,0 -26.99407,-12.69967 -26.99407,-28.2212 0,-15.52154 12.14745,-28.22121 26.99407,-28.22121 14.84664,0 26.9941,12.69967 26.9941,28.22121 0,15.52153 -12.14746,28.2212 -26.9941,28.2212 z m 0,-42.33222 c -7.42371,0 -13.49743,6.34984 -13.49743,14.11102 0,7.76117 6.07372,14.11101 13.49743,14.11101 7.42371,0 13.49745,-6.34984 13.49745,-14.11101 0,-7.76118 -6.07452,-14.11102 -13.49745,-14.11102 z"
   id="path24"
   style="stroke:#000000;stroke-width:10;stroke-miterlimit:4;stroke-dasharray:none;stroke-opacity:1" /><path
   d="M 325.87193,249.24695 H 186.12714 c -12.28501,0 -22.26742,-10.18892 -24.57091,-25.00828 l -9.98152,-70.39335 c -1.53596,-8.33609 0.76754,-17.59806 5.37453,-24.08241 5.37451,-6.48327 12.28501,-10.18894 19.19549,-10.18894 h 159.70872 c 6.91049,0 13.82097,3.70458 18.42796,10.18894 4.60699,6.48326 6.91048,15.74632 5.37453,24.08241 l -9.98152,70.39335 c -1.53506,14.82045 -11.51657,25.00828 -23.80249,25.00828 z M 176.14473,138.099 c -3.07103,0 -5.37452,1.85283 -6.91048,3.70457 -1.53597,2.7787 -2.3035,5.5574 -2.3035,9.26196 l 9.9815,70.39335 c 0.76755,5.5574 4.60699,9.26197 9.21398,9.26197 h 140.51324 c 4.60699,0 8.44644,-3.70457 9.21398,-9.26197 l 9.98152,-70.39335 c 0.76753,-3.70456 0,-6.48326 -2.3035,-9.26196 -2.30349,-2.7787 -4.60699,-3.70457 -7.67802,-3.70457 z"
   id="path28"
   style="stroke-width:1" /><path
   d="m 214.6086,168.41844 c 0,-8.46668 -5.39849,-14.11059 -13.49703,-14.11059 -8.09855,0 -13.49706,5.64391 -13.49706,14.11059 0,8.46671 5.39851,14.11062 13.49706,14.11062 8.09695,0.002 13.49703,-5.64391 13.49703,-14.11062"
   id="path30"
   style="stroke-width:1" /><path
   d="m 268.59678,168.41845 c 0,-8.46669 -5.3985,-14.1106 -13.49704,-14.1106 -8.09856,0 -13.49704,5.64391 -13.49704,14.1106 0,8.46671 5.39848,14.11061 13.49704,14.11061 8.09854,0 13.49704,-5.6439 13.49704,-14.11061"
   id="path34"
   style="stroke-width:1" /><path
   d="m 322.58495,168.41844 c 0,-8.46668 -5.3985,-14.11059 -13.49704,-14.11059 -8.09855,0 -13.49705,5.64391 -13.49705,14.11059 0,8.46671 5.3985,14.11062 13.49705,14.11062 8.09854,0.002 13.49704,-5.64391 13.49704,-14.11062"
   id="path38"
   style="stroke-width:1" /><path
   d="m 241.6027,207.78466 c 0,-8.4667 -5.39851,-14.11061 -13.49706,-14.11061 -8.09854,0 -13.49704,5.64391 -13.49704,14.11061 0,8.46669 5.3985,14.11059 13.49704,14.11059 8.09697,0 13.49706,-5.6439 13.49706,-14.11059"
   id="path42"
   style="stroke-width:1" /><path
   d="m 295.59086,207.78467 c 0,-8.46671 -5.3985,-14.11062 -13.49703,-14.11062 -8.09855,0 -13.49705,5.64391 -13.49705,14.11062 0,8.46669 5.3985,14.11058 13.49705,14.11058 8.09853,0 13.49703,-5.64389 13.49703,-14.11058"
   id="path44"
   style="stroke-width:1" /><rect
   style="fill:#000000;fill-opacity:1;stroke:#00ff00;stroke-width:0"
   id="rect1459"
   width="71.984222"
   height="122.29189"
   x="220.00742"
   y="301.05811" /></svg>
